<svg xmlns="http://www.w3.org/2000/svg" width="72" height="72" fill="none" viewBox="0 0 72 72">
  <g clip-path="url(#a)">
    <path fill="#10375C" d="M65.25 16.875H6.75A6.75 6.75 0 0 0 0 23.625v36a6.75 6.75 0 0 0 6.75 6.75h58.5a6.75 6.75 0 0 0 6.75-6.75v-36a6.75 6.75 0 0 0-6.75-6.75ZM48.375 45h-9v9h-6.75v-9h-9v-6.75h9v-9h6.75v9h9V45ZM27 14.625V11.25A2.25 2.25 0 0 1 29.25 9h13.5A2.25 2.25 0 0 1 45 11.25v3.375h4.5V11.25a6.758 6.758 0 0 0-6.75-6.75h-13.5a6.758 6.758 0 0 0-6.75 6.75v3.375H27Z"/>
  </g>
  <defs>
    <clipPath id="a">
      <path fill="#fff" d="M0 0h72v72H0z"/>
    </clipPath>
  </defs>
</svg>
