<svg xmlns="http://www.w3.org/2000/svg" width="72" height="72" fill="none" viewBox="0 0 72 72">
  <path fill="#10375C" d="M50.625 64.125a13.387 13.387 0 0 0 7.763-2.475l8.55 8.55a2.25 2.25 0 1 0 3.15-3.15l-8.55-8.55a13.5 13.5 0 1 0-10.913 5.625Zm0-22.5a9 9 0 1 1 0 18 9 9 0 0 1 0-18Z"/>
  <path fill="#10375C" d="M32.625 50.625c-.02-3.516.998-6.96 2.925-9.9a5.964 5.964 0 0 1-.225-1.913v-1.687a16.313 16.313 0 0 0 4.725-7.875c2.813 0 3.375-5.738 3.375-6.525 0-.788.113-4.275-2.7-4.275C46.8 3.937 30.825-3.713 18.9 4.612c-4.95 0-5.287 6.638-3.487 13.838-2.813 0-2.7 3.375-2.7 4.275 0 .9.675 6.525 3.374 6.525a16.426 16.426 0 0 0 4.726 7.875v1.8c0 1.8 0 4.5-9.113 6.3-9.112 1.8-10.575 9.9-10.575 9.9h32.063a17.885 17.885 0 0 1-.563-4.5Z"/>
</svg>
